<mxfile host="app.diagrams.net" modified="2023-08-31T06:29:03.287Z" agent="Mozilla/5.0 (Windows NT 10.0; Win64; x64) AppleWebKit/537.36 (KHTML, like Gecko) Chrome/116.0.0.0 Safari/537.36 Edg/116.0.1938.62" etag="hs0QfIpw_o1iBlhuqroR" version="21.7.0" type="github">
  <diagram id="C5RBs43oDa-KdzZeNtuy" name="Page-1">
    <mxGraphModel dx="1149" dy="663" grid="1" gridSize="10" guides="1" tooltips="1" connect="1" arrows="1" fold="1" page="1" pageScale="1" pageWidth="827" pageHeight="1169" math="0" shadow="0">
      <root>
        <mxCell id="WIyWlLk6GJQsqaUBKTNV-0" />
        <mxCell id="WIyWlLk6GJQsqaUBKTNV-1" parent="WIyWlLk6GJQsqaUBKTNV-0" />
        <mxCell id="47v-TTcWWAKO6_jb8XwO-3" value="" style="edgeStyle=orthogonalEdgeStyle;rounded=0;orthogonalLoop=1;jettySize=auto;html=1;" edge="1" parent="WIyWlLk6GJQsqaUBKTNV-1" source="WIyWlLk6GJQsqaUBKTNV-3" target="47v-TTcWWAKO6_jb8XwO-2">
          <mxGeometry relative="1" as="geometry" />
        </mxCell>
        <mxCell id="WIyWlLk6GJQsqaUBKTNV-3" value="Results Window Open" style="rounded=1;whiteSpace=wrap;html=1;fontSize=9;glass=0;strokeWidth=1;shadow=0;" parent="WIyWlLk6GJQsqaUBKTNV-1" vertex="1">
          <mxGeometry x="340" y="20" width="120" height="40" as="geometry" />
        </mxCell>
        <mxCell id="47v-TTcWWAKO6_jb8XwO-6" value="" style="edgeStyle=orthogonalEdgeStyle;rounded=0;orthogonalLoop=1;jettySize=auto;html=1;" edge="1" parent="WIyWlLk6GJQsqaUBKTNV-1" source="47v-TTcWWAKO6_jb8XwO-2" target="47v-TTcWWAKO6_jb8XwO-5">
          <mxGeometry relative="1" as="geometry" />
        </mxCell>
        <mxCell id="47v-TTcWWAKO6_jb8XwO-2" value="Wait For Interaction" style="rounded=1;whiteSpace=wrap;html=1;fontSize=9;glass=0;strokeWidth=1;shadow=0;" vertex="1" parent="WIyWlLk6GJQsqaUBKTNV-1">
          <mxGeometry x="340" y="90" width="120" height="40" as="geometry" />
        </mxCell>
        <mxCell id="47v-TTcWWAKO6_jb8XwO-8" style="edgeStyle=orthogonalEdgeStyle;rounded=1;orthogonalLoop=1;jettySize=auto;html=1;entryX=0;entryY=0.5;entryDx=0;entryDy=0;" edge="1" parent="WIyWlLk6GJQsqaUBKTNV-1" source="47v-TTcWWAKO6_jb8XwO-5" target="47v-TTcWWAKO6_jb8XwO-2">
          <mxGeometry relative="1" as="geometry">
            <Array as="points">
              <mxPoint x="320" y="200" />
              <mxPoint x="320" y="110" />
            </Array>
          </mxGeometry>
        </mxCell>
        <mxCell id="47v-TTcWWAKO6_jb8XwO-9" value="&lt;b&gt;&lt;font style=&quot;font-size: 11px;&quot;&gt;No&lt;/font&gt;&lt;/b&gt;" style="edgeLabel;html=1;align=center;verticalAlign=middle;resizable=0;points=[];" vertex="1" connectable="0" parent="47v-TTcWWAKO6_jb8XwO-8">
          <mxGeometry x="-0.8436" y="-1" relative="1" as="geometry">
            <mxPoint as="offset" />
          </mxGeometry>
        </mxCell>
        <mxCell id="47v-TTcWWAKO6_jb8XwO-31" style="edgeStyle=orthogonalEdgeStyle;rounded=0;orthogonalLoop=1;jettySize=auto;html=1;entryX=0.5;entryY=0;entryDx=0;entryDy=0;" edge="1" parent="WIyWlLk6GJQsqaUBKTNV-1" source="47v-TTcWWAKO6_jb8XwO-5" target="47v-TTcWWAKO6_jb8XwO-30">
          <mxGeometry relative="1" as="geometry" />
        </mxCell>
        <mxCell id="47v-TTcWWAKO6_jb8XwO-32" value="&lt;b&gt;Yes&lt;/b&gt;" style="edgeLabel;html=1;align=center;verticalAlign=middle;resizable=0;points=[];" vertex="1" connectable="0" parent="47v-TTcWWAKO6_jb8XwO-31">
          <mxGeometry x="-0.3121" y="-3" relative="1" as="geometry">
            <mxPoint x="3" as="offset" />
          </mxGeometry>
        </mxCell>
        <mxCell id="47v-TTcWWAKO6_jb8XwO-5" value="Button Pressed?" style="rhombus;whiteSpace=wrap;html=1;fontSize=9;rounded=1;glass=0;strokeWidth=1;shadow=0;" vertex="1" parent="WIyWlLk6GJQsqaUBKTNV-1">
          <mxGeometry x="360" y="160" width="80" height="80" as="geometry" />
        </mxCell>
        <mxCell id="47v-TTcWWAKO6_jb8XwO-50" style="edgeStyle=orthogonalEdgeStyle;rounded=1;orthogonalLoop=1;jettySize=auto;html=1;entryX=1;entryY=0.75;entryDx=0;entryDy=0;exitX=0.5;exitY=1;exitDx=0;exitDy=0;" edge="1" parent="WIyWlLk6GJQsqaUBKTNV-1" source="47v-TTcWWAKO6_jb8XwO-12" target="47v-TTcWWAKO6_jb8XwO-30">
          <mxGeometry relative="1" as="geometry">
            <Array as="points">
              <mxPoint x="510" y="310" />
            </Array>
          </mxGeometry>
        </mxCell>
        <mxCell id="47v-TTcWWAKO6_jb8XwO-51" value="&lt;b&gt;No&lt;/b&gt;" style="edgeLabel;html=1;align=center;verticalAlign=middle;resizable=0;points=[];" vertex="1" connectable="0" parent="47v-TTcWWAKO6_jb8XwO-50">
          <mxGeometry x="-0.4696" y="-1" relative="1" as="geometry">
            <mxPoint x="-14" y="1" as="offset" />
          </mxGeometry>
        </mxCell>
        <mxCell id="47v-TTcWWAKO6_jb8XwO-141" style="edgeStyle=orthogonalEdgeStyle;rounded=1;orthogonalLoop=1;jettySize=auto;html=1;entryX=0.5;entryY=0;entryDx=0;entryDy=0;exitX=1;exitY=0.5;exitDx=0;exitDy=0;" edge="1" parent="WIyWlLk6GJQsqaUBKTNV-1" source="47v-TTcWWAKO6_jb8XwO-12" target="47v-TTcWWAKO6_jb8XwO-89">
          <mxGeometry relative="1" as="geometry" />
        </mxCell>
        <mxCell id="47v-TTcWWAKO6_jb8XwO-143" value="&lt;b&gt;Yes&lt;/b&gt;" style="edgeLabel;html=1;align=center;verticalAlign=middle;resizable=0;points=[];" vertex="1" connectable="0" parent="47v-TTcWWAKO6_jb8XwO-141">
          <mxGeometry x="0.2224" y="1" relative="1" as="geometry">
            <mxPoint as="offset" />
          </mxGeometry>
        </mxCell>
        <mxCell id="47v-TTcWWAKO6_jb8XwO-12" value="&lt;b&gt;Shop Button?&lt;/b&gt;" style="rhombus;whiteSpace=wrap;html=1;fontSize=9;rounded=1;glass=0;strokeWidth=1;shadow=0;" vertex="1" parent="WIyWlLk6GJQsqaUBKTNV-1">
          <mxGeometry x="470" y="220" width="80" height="80" as="geometry" />
        </mxCell>
        <mxCell id="47v-TTcWWAKO6_jb8XwO-85" style="edgeStyle=orthogonalEdgeStyle;rounded=0;orthogonalLoop=1;jettySize=auto;html=1;entryX=0.12;entryY=1.013;entryDx=0;entryDy=0;entryPerimeter=0;" edge="1" parent="WIyWlLk6GJQsqaUBKTNV-1" source="47v-TTcWWAKO6_jb8XwO-14" target="47v-TTcWWAKO6_jb8XwO-30">
          <mxGeometry relative="1" as="geometry">
            <Array as="points">
              <mxPoint x="354" y="340" />
            </Array>
          </mxGeometry>
        </mxCell>
        <mxCell id="47v-TTcWWAKO6_jb8XwO-86" value="&lt;b&gt;No&lt;/b&gt;" style="edgeLabel;html=1;align=center;verticalAlign=middle;resizable=0;points=[];" vertex="1" connectable="0" parent="47v-TTcWWAKO6_jb8XwO-85">
          <mxGeometry x="0.2607" y="-1" relative="1" as="geometry">
            <mxPoint x="-5" y="3" as="offset" />
          </mxGeometry>
        </mxCell>
        <mxCell id="47v-TTcWWAKO6_jb8XwO-124" style="edgeStyle=orthogonalEdgeStyle;rounded=1;orthogonalLoop=1;jettySize=auto;html=1;entryX=0.46;entryY=0.04;entryDx=0;entryDy=0;entryPerimeter=0;" edge="1" parent="WIyWlLk6GJQsqaUBKTNV-1" source="47v-TTcWWAKO6_jb8XwO-14" target="47v-TTcWWAKO6_jb8XwO-75">
          <mxGeometry relative="1" as="geometry">
            <mxPoint x="380" y="530" as="targetPoint" />
            <Array as="points">
              <mxPoint x="360" y="470" />
              <mxPoint x="325" y="470" />
            </Array>
          </mxGeometry>
        </mxCell>
        <mxCell id="47v-TTcWWAKO6_jb8XwO-126" style="edgeStyle=orthogonalEdgeStyle;rounded=1;orthogonalLoop=1;jettySize=auto;html=1;entryX=0.5;entryY=1;entryDx=0;entryDy=0;" edge="1" parent="WIyWlLk6GJQsqaUBKTNV-1" source="47v-TTcWWAKO6_jb8XwO-14" target="47v-TTcWWAKO6_jb8XwO-59">
          <mxGeometry relative="1" as="geometry">
            <Array as="points">
              <mxPoint x="360" y="470" />
              <mxPoint x="290" y="470" />
            </Array>
          </mxGeometry>
        </mxCell>
        <mxCell id="47v-TTcWWAKO6_jb8XwO-155" value="&lt;b&gt;Yes&lt;/b&gt;" style="edgeLabel;html=1;align=center;verticalAlign=middle;resizable=0;points=[];" vertex="1" connectable="0" parent="47v-TTcWWAKO6_jb8XwO-126">
          <mxGeometry x="-0.8789" relative="1" as="geometry">
            <mxPoint as="offset" />
          </mxGeometry>
        </mxCell>
        <mxCell id="47v-TTcWWAKO6_jb8XwO-14" value="&lt;b&gt;Play Again Button?&lt;/b&gt;" style="rhombus;whiteSpace=wrap;html=1;fontSize=9;rounded=1;glass=0;strokeWidth=1;shadow=0;" vertex="1" parent="WIyWlLk6GJQsqaUBKTNV-1">
          <mxGeometry x="320" y="360" width="80" height="80" as="geometry" />
        </mxCell>
        <mxCell id="47v-TTcWWAKO6_jb8XwO-53" style="edgeStyle=orthogonalEdgeStyle;rounded=0;orthogonalLoop=1;jettySize=auto;html=1;entryX=0;entryY=0.75;entryDx=0;entryDy=0;" edge="1" parent="WIyWlLk6GJQsqaUBKTNV-1" source="47v-TTcWWAKO6_jb8XwO-19" target="47v-TTcWWAKO6_jb8XwO-30">
          <mxGeometry relative="1" as="geometry">
            <Array as="points">
              <mxPoint x="290" y="310" />
              <mxPoint x="290" y="310" />
            </Array>
          </mxGeometry>
        </mxCell>
        <mxCell id="47v-TTcWWAKO6_jb8XwO-54" value="&lt;b&gt;No&lt;/b&gt;" style="edgeLabel;html=1;align=center;verticalAlign=middle;resizable=0;points=[];" vertex="1" connectable="0" parent="47v-TTcWWAKO6_jb8XwO-53">
          <mxGeometry x="-0.3293" y="1" relative="1" as="geometry">
            <mxPoint x="27" y="1" as="offset" />
          </mxGeometry>
        </mxCell>
        <mxCell id="47v-TTcWWAKO6_jb8XwO-60" value="" style="edgeStyle=orthogonalEdgeStyle;rounded=1;orthogonalLoop=1;jettySize=auto;html=1;exitX=0.5;exitY=1;exitDx=0;exitDy=0;entryX=0;entryY=0.5;entryDx=0;entryDy=0;" edge="1" parent="WIyWlLk6GJQsqaUBKTNV-1" source="47v-TTcWWAKO6_jb8XwO-19" target="47v-TTcWWAKO6_jb8XwO-59">
          <mxGeometry relative="1" as="geometry">
            <Array as="points">
              <mxPoint x="210" y="380" />
              <mxPoint x="230" y="380" />
              <mxPoint x="230" y="355" />
            </Array>
          </mxGeometry>
        </mxCell>
        <mxCell id="47v-TTcWWAKO6_jb8XwO-127" style="edgeStyle=orthogonalEdgeStyle;rounded=1;orthogonalLoop=1;jettySize=auto;html=1;entryX=0.5;entryY=0;entryDx=0;entryDy=0;exitX=0.5;exitY=1;exitDx=0;exitDy=0;" edge="1" parent="WIyWlLk6GJQsqaUBKTNV-1" source="47v-TTcWWAKO6_jb8XwO-19" target="47v-TTcWWAKO6_jb8XwO-66">
          <mxGeometry relative="1" as="geometry">
            <Array as="points">
              <mxPoint x="210" y="380" />
              <mxPoint x="160" y="380" />
            </Array>
          </mxGeometry>
        </mxCell>
        <mxCell id="47v-TTcWWAKO6_jb8XwO-128" value="&lt;b&gt;Yes&lt;/b&gt;" style="edgeLabel;html=1;align=center;verticalAlign=middle;resizable=0;points=[];" vertex="1" connectable="0" parent="47v-TTcWWAKO6_jb8XwO-127">
          <mxGeometry x="-0.748" y="-1" relative="1" as="geometry">
            <mxPoint x="1" y="-3" as="offset" />
          </mxGeometry>
        </mxCell>
        <mxCell id="47v-TTcWWAKO6_jb8XwO-19" value="&lt;b&gt;Main Menu Button?&lt;/b&gt;" style="rhombus;whiteSpace=wrap;html=1;fontSize=9;rounded=1;glass=0;strokeWidth=1;shadow=0;" vertex="1" parent="WIyWlLk6GJQsqaUBKTNV-1">
          <mxGeometry x="170" y="260" width="80" height="80" as="geometry" />
        </mxCell>
        <mxCell id="47v-TTcWWAKO6_jb8XwO-49" style="edgeStyle=orthogonalEdgeStyle;rounded=1;orthogonalLoop=1;jettySize=auto;html=1;entryX=0;entryY=0.5;entryDx=0;entryDy=0;exitX=0.75;exitY=0;exitDx=0;exitDy=0;" edge="1" parent="WIyWlLk6GJQsqaUBKTNV-1" source="47v-TTcWWAKO6_jb8XwO-30" target="47v-TTcWWAKO6_jb8XwO-12">
          <mxGeometry relative="1" as="geometry">
            <Array as="points">
              <mxPoint x="430" y="260" />
            </Array>
          </mxGeometry>
        </mxCell>
        <mxCell id="47v-TTcWWAKO6_jb8XwO-52" style="edgeStyle=orthogonalEdgeStyle;rounded=0;orthogonalLoop=1;jettySize=auto;html=1;entryX=1;entryY=0.5;entryDx=0;entryDy=0;" edge="1" parent="WIyWlLk6GJQsqaUBKTNV-1" source="47v-TTcWWAKO6_jb8XwO-30" target="47v-TTcWWAKO6_jb8XwO-19">
          <mxGeometry relative="1" as="geometry" />
        </mxCell>
        <mxCell id="47v-TTcWWAKO6_jb8XwO-83" style="edgeStyle=orthogonalEdgeStyle;rounded=0;orthogonalLoop=1;jettySize=auto;html=1;entryX=0.59;entryY=0.074;entryDx=0;entryDy=0;entryPerimeter=0;" edge="1" parent="WIyWlLk6GJQsqaUBKTNV-1" source="47v-TTcWWAKO6_jb8XwO-30" target="47v-TTcWWAKO6_jb8XwO-14">
          <mxGeometry relative="1" as="geometry">
            <Array as="points">
              <mxPoint x="367" y="330" />
              <mxPoint x="367" y="330" />
            </Array>
          </mxGeometry>
        </mxCell>
        <mxCell id="47v-TTcWWAKO6_jb8XwO-30" value="&lt;b&gt;Check what button was pressed&lt;/b&gt;" style="rounded=1;whiteSpace=wrap;html=1;fontSize=9;glass=0;strokeWidth=1;shadow=0;" vertex="1" parent="WIyWlLk6GJQsqaUBKTNV-1">
          <mxGeometry x="340" y="280" width="120" height="40" as="geometry" />
        </mxCell>
        <mxCell id="47v-TTcWWAKO6_jb8XwO-59" value="&lt;b&gt;Close Results Window&lt;/b&gt;" style="whiteSpace=wrap;html=1;fontSize=9;rounded=1;glass=0;strokeWidth=1;shadow=0;" vertex="1" parent="WIyWlLk6GJQsqaUBKTNV-1">
          <mxGeometry x="250" y="330" width="80" height="50" as="geometry" />
        </mxCell>
        <mxCell id="47v-TTcWWAKO6_jb8XwO-129" style="edgeStyle=orthogonalEdgeStyle;rounded=1;orthogonalLoop=1;jettySize=auto;html=1;entryX=0.5;entryY=0;entryDx=0;entryDy=0;" edge="1" parent="WIyWlLk6GJQsqaUBKTNV-1" source="47v-TTcWWAKO6_jb8XwO-66" target="47v-TTcWWAKO6_jb8XwO-69">
          <mxGeometry relative="1" as="geometry" />
        </mxCell>
        <mxCell id="47v-TTcWWAKO6_jb8XwO-66" value="&lt;b&gt;Go To Main Menu&lt;/b&gt;" style="whiteSpace=wrap;html=1;fontSize=9;rounded=1;glass=0;strokeWidth=1;shadow=0;" vertex="1" parent="WIyWlLk6GJQsqaUBKTNV-1">
          <mxGeometry x="120" y="395" width="80" height="50" as="geometry" />
        </mxCell>
        <mxCell id="47v-TTcWWAKO6_jb8XwO-69" value="&lt;font style=&quot;font-size: 8px;&quot;&gt;&lt;b&gt;END&lt;/b&gt;&lt;/font&gt;" style="ellipse;html=1;shape=endState;" vertex="1" parent="WIyWlLk6GJQsqaUBKTNV-1">
          <mxGeometry x="240" y="440" width="30" height="30" as="geometry" />
        </mxCell>
        <mxCell id="47v-TTcWWAKO6_jb8XwO-122" style="edgeStyle=orthogonalEdgeStyle;rounded=1;orthogonalLoop=1;jettySize=auto;html=1;entryX=0.5;entryY=1;entryDx=0;entryDy=0;exitX=0.217;exitY=0.012;exitDx=0;exitDy=0;exitPerimeter=0;" edge="1" parent="WIyWlLk6GJQsqaUBKTNV-1" source="47v-TTcWWAKO6_jb8XwO-75" target="47v-TTcWWAKO6_jb8XwO-69">
          <mxGeometry relative="1" as="geometry">
            <Array as="points">
              <mxPoint x="296" y="490" />
              <mxPoint x="255" y="490" />
            </Array>
          </mxGeometry>
        </mxCell>
        <mxCell id="47v-TTcWWAKO6_jb8XwO-75" value="&lt;b&gt;Start New Run&lt;/b&gt;" style="whiteSpace=wrap;html=1;fontSize=9;rounded=1;glass=0;strokeWidth=1;shadow=0;" vertex="1" parent="WIyWlLk6GJQsqaUBKTNV-1">
          <mxGeometry x="270" y="500" width="120" height="60" as="geometry" />
        </mxCell>
        <mxCell id="47v-TTcWWAKO6_jb8XwO-154" style="edgeStyle=orthogonalEdgeStyle;rounded=1;orthogonalLoop=1;jettySize=auto;html=1;entryX=1;entryY=0.5;entryDx=0;entryDy=0;" edge="1" parent="WIyWlLk6GJQsqaUBKTNV-1" source="47v-TTcWWAKO6_jb8XwO-79" target="47v-TTcWWAKO6_jb8XwO-2">
          <mxGeometry relative="1" as="geometry">
            <Array as="points">
              <mxPoint x="610" y="210" />
              <mxPoint x="490" y="210" />
              <mxPoint x="490" y="110" />
            </Array>
          </mxGeometry>
        </mxCell>
        <mxCell id="47v-TTcWWAKO6_jb8XwO-79" value="&lt;b&gt;Open Shop Window&lt;br&gt;&lt;/b&gt;" style="whiteSpace=wrap;html=1;fontSize=9;rounded=1;glass=0;strokeWidth=1;shadow=0;" vertex="1" parent="WIyWlLk6GJQsqaUBKTNV-1">
          <mxGeometry x="580" y="260" width="60" height="60" as="geometry" />
        </mxCell>
        <mxCell id="47v-TTcWWAKO6_jb8XwO-146" style="edgeStyle=orthogonalEdgeStyle;rounded=0;orthogonalLoop=1;jettySize=auto;html=1;entryX=0;entryY=0.5;entryDx=0;entryDy=0;" edge="1" parent="WIyWlLk6GJQsqaUBKTNV-1" source="47v-TTcWWAKO6_jb8XwO-89" target="47v-TTcWWAKO6_jb8XwO-107">
          <mxGeometry relative="1" as="geometry" />
        </mxCell>
        <mxCell id="47v-TTcWWAKO6_jb8XwO-147" value="&lt;b&gt;No&lt;/b&gt;" style="edgeLabel;html=1;align=center;verticalAlign=middle;resizable=0;points=[];" vertex="1" connectable="0" parent="47v-TTcWWAKO6_jb8XwO-146">
          <mxGeometry x="-0.424" relative="1" as="geometry">
            <mxPoint as="offset" />
          </mxGeometry>
        </mxCell>
        <mxCell id="47v-TTcWWAKO6_jb8XwO-156" style="edgeStyle=orthogonalEdgeStyle;rounded=0;orthogonalLoop=1;jettySize=auto;html=1;entryX=0.5;entryY=0;entryDx=0;entryDy=0;" edge="1" parent="WIyWlLk6GJQsqaUBKTNV-1" source="47v-TTcWWAKO6_jb8XwO-89" target="47v-TTcWWAKO6_jb8XwO-98">
          <mxGeometry relative="1" as="geometry" />
        </mxCell>
        <mxCell id="47v-TTcWWAKO6_jb8XwO-158" value="&lt;b&gt;Yes&lt;/b&gt;" style="edgeLabel;html=1;align=center;verticalAlign=middle;resizable=0;points=[];" vertex="1" connectable="0" parent="47v-TTcWWAKO6_jb8XwO-156">
          <mxGeometry x="0.4432" relative="1" as="geometry">
            <mxPoint as="offset" />
          </mxGeometry>
        </mxCell>
        <mxCell id="47v-TTcWWAKO6_jb8XwO-89" value="&lt;b&gt;Is Shop Open?&lt;/b&gt;" style="rhombus;whiteSpace=wrap;html=1;fontSize=9;rounded=1;glass=0;strokeWidth=1;shadow=0;" vertex="1" parent="WIyWlLk6GJQsqaUBKTNV-1">
          <mxGeometry x="400" y="360" width="80" height="80" as="geometry" />
        </mxCell>
        <mxCell id="47v-TTcWWAKO6_jb8XwO-157" style="edgeStyle=orthogonalEdgeStyle;rounded=0;orthogonalLoop=1;jettySize=auto;html=1;entryX=0.5;entryY=0;entryDx=0;entryDy=0;" edge="1" parent="WIyWlLk6GJQsqaUBKTNV-1" source="47v-TTcWWAKO6_jb8XwO-98" target="47v-TTcWWAKO6_jb8XwO-139">
          <mxGeometry relative="1" as="geometry" />
        </mxCell>
        <mxCell id="47v-TTcWWAKO6_jb8XwO-98" value="&lt;b&gt;Close Shop Window&lt;/b&gt;" style="whiteSpace=wrap;html=1;fontSize=9;rounded=1;glass=0;strokeWidth=1;shadow=0;" vertex="1" parent="WIyWlLk6GJQsqaUBKTNV-1">
          <mxGeometry x="410" y="470" width="60" height="60" as="geometry" />
        </mxCell>
        <mxCell id="47v-TTcWWAKO6_jb8XwO-153" style="edgeStyle=orthogonalEdgeStyle;rounded=1;orthogonalLoop=1;jettySize=auto;html=1;entryX=0.5;entryY=1;entryDx=0;entryDy=0;" edge="1" parent="WIyWlLk6GJQsqaUBKTNV-1" source="47v-TTcWWAKO6_jb8XwO-107" target="47v-TTcWWAKO6_jb8XwO-79">
          <mxGeometry relative="1" as="geometry" />
        </mxCell>
        <mxCell id="47v-TTcWWAKO6_jb8XwO-107" value="&lt;b&gt;Move Results Window UI to the left side of the screen&lt;/b&gt;" style="whiteSpace=wrap;html=1;fontSize=9;rounded=1;glass=0;strokeWidth=1;shadow=0;" vertex="1" parent="WIyWlLk6GJQsqaUBKTNV-1">
          <mxGeometry x="520" y="370" width="120" height="60" as="geometry" />
        </mxCell>
        <mxCell id="47v-TTcWWAKO6_jb8XwO-139" value="&lt;b&gt;Move Results Window UI to the middle of the screen&lt;/b&gt;" style="whiteSpace=wrap;html=1;fontSize=9;rounded=1;glass=0;strokeWidth=1;shadow=0;" vertex="1" parent="WIyWlLk6GJQsqaUBKTNV-1">
          <mxGeometry x="400" y="550" width="80" height="60" as="geometry" />
        </mxCell>
      </root>
    </mxGraphModel>
  </diagram>
</mxfile>
